<mxfile host="Electron" agent="Mozilla/5.0 (X11; Linux x86_64) AppleWebKit/537.36 (KHTML, like Gecko) draw.io/26.0.4 Chrome/128.0.6613.186 Electron/32.2.5 Safari/537.36" version="26.0.4">
  <diagram name="Page-1" id="BtdjexgGWpA8RrYUxlWL">
    <mxGraphModel dx="768" dy="826" grid="1" gridSize="10" guides="1" tooltips="1" connect="1" arrows="1" fold="1" page="1" pageScale="1" pageWidth="850" pageHeight="1100" math="0" shadow="0">
      <root>
        <mxCell id="0" />
        <mxCell id="1" parent="0" />
        <mxCell id="xGiZu577eAiqvLf28rIS-2" value="Auto Scaling group" style="points=[[0,0],[0.25,0],[0.5,0],[0.75,0],[1,0],[1,0.25],[1,0.5],[1,0.75],[1,1],[0.75,1],[0.5,1],[0.25,1],[0,1],[0,0.75],[0,0.5],[0,0.25]];outlineConnect=0;gradientColor=none;html=1;whiteSpace=wrap;fontSize=12;fontStyle=0;container=1;pointerEvents=0;collapsible=0;recursiveResize=0;shape=mxgraph.aws4.groupCenter;grIcon=mxgraph.aws4.group_auto_scaling_group;grStroke=1;strokeColor=#D86613;fillColor=none;verticalAlign=top;align=center;fontColor=#D86613;dashed=1;spacingTop=25;" vertex="1" parent="1">
          <mxGeometry x="180" y="540" width="520" height="120" as="geometry" />
        </mxCell>
        <mxCell id="xGiZu577eAiqvLf28rIS-3" value="" style="sketch=0;outlineConnect=0;fontColor=#232F3E;gradientColor=none;fillColor=#ED7100;strokeColor=none;dashed=0;verticalLabelPosition=bottom;verticalAlign=top;align=center;html=1;fontSize=12;fontStyle=0;aspect=fixed;pointerEvents=1;shape=mxgraph.aws4.instance2;" vertex="1" parent="xGiZu577eAiqvLf28rIS-2">
          <mxGeometry x="21" y="60" width="48" height="48" as="geometry" />
        </mxCell>
        <mxCell id="xGiZu577eAiqvLf28rIS-4" value="" style="sketch=0;outlineConnect=0;fontColor=#232F3E;gradientColor=none;fillColor=#ED7100;strokeColor=none;dashed=0;verticalLabelPosition=bottom;verticalAlign=top;align=center;html=1;fontSize=12;fontStyle=0;aspect=fixed;pointerEvents=1;shape=mxgraph.aws4.instance2;" vertex="1" parent="xGiZu577eAiqvLf28rIS-2">
          <mxGeometry x="81" y="60" width="48" height="48" as="geometry" />
        </mxCell>
        <mxCell id="xGiZu577eAiqvLf28rIS-5" value="" style="sketch=0;outlineConnect=0;fontColor=#232F3E;gradientColor=none;fillColor=#ED7100;strokeColor=none;dashed=0;verticalLabelPosition=bottom;verticalAlign=top;align=center;html=1;fontSize=12;fontStyle=0;aspect=fixed;pointerEvents=1;shape=mxgraph.aws4.instance2;" vertex="1" parent="xGiZu577eAiqvLf28rIS-2">
          <mxGeometry x="141" y="60" width="48" height="48" as="geometry" />
        </mxCell>
        <mxCell id="xGiZu577eAiqvLf28rIS-6" value="" style="sketch=0;outlineConnect=0;fontColor=#232F3E;gradientColor=none;fillColor=#ED7100;strokeColor=none;dashed=0;verticalLabelPosition=bottom;verticalAlign=top;align=center;html=1;fontSize=12;fontStyle=0;aspect=fixed;pointerEvents=1;shape=mxgraph.aws4.instance2;" vertex="1" parent="xGiZu577eAiqvLf28rIS-2">
          <mxGeometry x="201" y="60" width="48" height="48" as="geometry" />
        </mxCell>
        <mxCell id="xGiZu577eAiqvLf28rIS-7" value="" style="sketch=0;outlineConnect=0;fontColor=#232F3E;gradientColor=none;fillColor=#ED7100;strokeColor=none;dashed=0;verticalLabelPosition=bottom;verticalAlign=top;align=center;html=1;fontSize=12;fontStyle=0;aspect=fixed;pointerEvents=1;shape=mxgraph.aws4.instance2;" vertex="1" parent="xGiZu577eAiqvLf28rIS-2">
          <mxGeometry x="331" y="60" width="48" height="48" as="geometry" />
        </mxCell>
        <mxCell id="xGiZu577eAiqvLf28rIS-8" value="" style="sketch=0;outlineConnect=0;fontColor=#232F3E;gradientColor=none;fillColor=#ED7100;strokeColor=none;dashed=0;verticalLabelPosition=bottom;verticalAlign=top;align=center;html=1;fontSize=12;fontStyle=0;aspect=fixed;pointerEvents=1;shape=mxgraph.aws4.instance2;" vertex="1" parent="xGiZu577eAiqvLf28rIS-2">
          <mxGeometry x="391" y="60" width="48" height="48" as="geometry" />
        </mxCell>
        <mxCell id="xGiZu577eAiqvLf28rIS-9" value="" style="sketch=0;outlineConnect=0;fontColor=#232F3E;gradientColor=none;fillColor=#ED7100;strokeColor=none;dashed=0;verticalLabelPosition=bottom;verticalAlign=top;align=center;html=1;fontSize=12;fontStyle=0;aspect=fixed;pointerEvents=1;shape=mxgraph.aws4.instance2;" vertex="1" parent="xGiZu577eAiqvLf28rIS-2">
          <mxGeometry x="451" y="60" width="48" height="48" as="geometry" />
        </mxCell>
        <mxCell id="xGiZu577eAiqvLf28rIS-20" style="edgeStyle=orthogonalEdgeStyle;rounded=0;orthogonalLoop=1;jettySize=auto;html=1;" edge="1" parent="1" source="xGiZu577eAiqvLf28rIS-18" target="xGiZu577eAiqvLf28rIS-19">
          <mxGeometry relative="1" as="geometry" />
        </mxCell>
        <mxCell id="xGiZu577eAiqvLf28rIS-18" value="Users" style="sketch=0;outlineConnect=0;fontColor=#232F3E;gradientColor=none;fillColor=#232F3D;strokeColor=none;dashed=0;verticalLabelPosition=top;verticalAlign=bottom;align=center;html=1;fontSize=12;fontStyle=0;aspect=fixed;pointerEvents=1;shape=mxgraph.aws4.users;labelPosition=center;" vertex="1" parent="1">
          <mxGeometry x="401" y="240" width="78" height="78" as="geometry" />
        </mxCell>
        <mxCell id="xGiZu577eAiqvLf28rIS-21" value="ELB can check the health of your EC2 Instances!" style="edgeStyle=orthogonalEdgeStyle;rounded=0;orthogonalLoop=1;jettySize=auto;html=1;" edge="1" parent="1" source="xGiZu577eAiqvLf28rIS-19" target="xGiZu577eAiqvLf28rIS-2">
          <mxGeometry relative="1" as="geometry" />
        </mxCell>
        <mxCell id="xGiZu577eAiqvLf28rIS-19" value="Elastic Load Balancer" style="sketch=0;points=[[0,0,0],[0.25,0,0],[0.5,0,0],[0.75,0,0],[1,0,0],[0,1,0],[0.25,1,0],[0.5,1,0],[0.75,1,0],[1,1,0],[0,0.25,0],[0,0.5,0],[0,0.75,0],[1,0.25,0],[1,0.5,0],[1,0.75,0]];outlineConnect=0;fontColor=#232F3E;fillColor=#8C4FFF;strokeColor=#ffffff;dashed=0;verticalLabelPosition=middle;verticalAlign=middle;align=left;html=1;fontSize=12;fontStyle=0;aspect=fixed;shape=mxgraph.aws4.resourceIcon;resIcon=mxgraph.aws4.elastic_load_balancing;labelPosition=right;spacingLeft=5;" vertex="1" parent="1">
          <mxGeometry x="401" y="390" width="78" height="78" as="geometry" />
        </mxCell>
      </root>
    </mxGraphModel>
  </diagram>
</mxfile>
